<svg width="448" height="64" viewBox="0 0 896 128" fill="none" xmlns="http://www.w3.org/2000/svg">
<path d="M296.53 77.82V50.74H298V55C298.174 54.8113 298.334 54.6108 298.48 54.4C299.081 53.1531 300.024 52.1033 301.2 51.3736C302.376 50.6439 303.736 50.2645 305.12 50.28C308.47 50.18 311.19 51.42 312.79 54.4C313.808 56.2512 314.368 58.3192 314.424 60.4311C314.48 62.5431 314.029 64.6377 313.11 66.54C311.62 69.88 307.94 71.54 304 70.93C302.774 70.8256 301.593 70.4158 300.566 69.738C299.539 69.0603 298.698 68.1362 298.12 67.05V77.82H296.53ZM298 60.32C298.13 61.64 298.18 62.58 298.33 63.5C298.91 67.12 301.05 69.27 304.41 69.66C305.988 69.9193 307.606 69.6235 308.99 68.823C310.375 68.0225 311.438 66.7668 312 65.27C312.646 63.7304 312.956 62.071 312.912 60.402C312.867 58.7331 312.467 57.0928 311.74 55.59C311.14 54.2484 310.12 53.1384 308.834 52.4276C307.548 51.7168 306.065 51.4439 304.61 51.65C303.244 51.749 301.943 52.2712 300.887 53.144C299.831 54.0168 299.074 55.1968 298.72 56.52C298.407 57.7717 298.166 59.0405 298 60.32ZM344.41 64C344.187 65.9066 343.28 67.6675 341.856 68.955C340.432 70.2426 338.589 70.9693 336.67 71C330.51 71.31 327.62 67.22 327.16 62.5C326.841 59.9368 327.257 57.3356 328.36 55C329.128 53.3979 330.386 52.0818 331.952 51.2422C333.518 50.4027 335.31 50.0832 337.07 50.33C338.743 50.4718 340.329 51.1362 341.603 52.2292C342.877 53.3222 343.775 54.7883 344.17 56.42C344.483 57.9061 344.713 59.4084 344.86 60.92H328.67C328.37 65.2 330.67 68.64 333.93 69.47C337.99 70.47 341.46 68.71 342.72 64.85C343 63.86 343.51 63.72 344.41 64ZM328.67 59.55H343.14C343.05 54.99 340.21 51.69 336.36 51.64C332 51.57 328.86 54.75 328.67 59.55ZM347.39 64.1H348.81C348.862 65.1449 349.202 66.155 349.791 67.0195C350.38 67.884 351.197 68.5692 352.15 69C353.347 69.5387 354.65 69.8006 355.963 69.7659C357.275 69.7313 358.563 69.4011 359.73 68.8C360.366 68.5133 360.899 68.0383 361.256 67.4393C361.614 66.8403 361.779 66.1459 361.73 65.45C361.767 64.7788 361.583 64.114 361.208 63.5564C360.833 62.9987 360.286 62.5787 359.65 62.36C358.09 61.78 356.43 61.46 354.84 60.95C353.186 60.4789 351.568 59.8873 350 59.18C347.44 57.93 347.28 53.06 350.18 51.52C351.665 50.682 353.336 50.2293 355.041 50.2031C356.746 50.1769 358.43 50.5781 359.94 51.37C360.855 51.8755 361.594 52.6479 362.058 53.5841C362.523 54.5203 362.691 55.5758 362.54 56.61H361.32C361.32 56.55 361.21 56.5 361.21 56.44C361.06 52.55 357.8 51.35 354.3 51.69C353.255 51.8189 352.24 52.1267 351.3 52.6C350.735 52.8583 350.264 53.2857 349.953 53.8231C349.641 54.3605 349.504 54.9813 349.56 55.6C349.562 56.2189 349.755 56.8222 350.113 57.3271C350.471 57.8319 350.976 58.2137 351.56 58.42C353.1 58.98 354.71 59.34 356.29 59.78C357.56 60.13 358.88 60.36 360.11 60.78C360.978 61.0646 361.739 61.6061 362.293 62.3329C362.847 63.0597 363.166 63.9374 363.21 64.85C363.358 65.8499 363.188 66.8711 362.723 67.7686C362.258 68.6662 361.522 69.3944 360.62 69.85C357.28 71.74 351.78 71.24 349.33 68.85C348.709 68.2255 348.218 67.4843 347.885 66.669C347.552 65.8537 347.384 64.9806 347.39 64.1ZM381.21 56.61H379.88C379.88 56.43 379.81 56.27 379.79 56.12C379.768 55.1231 379.405 54.1638 378.761 53.4028C378.116 52.6419 377.23 52.1254 376.25 51.94C374.401 51.4096 372.429 51.5045 370.64 52.21C369.933 52.4128 369.31 52.8388 368.865 53.4246C368.42 54.0103 368.176 54.7243 368.17 55.46C368.145 56.1825 368.37 56.8914 368.808 57.4671C369.245 58.0429 369.867 58.45 370.57 58.62C372.57 59.24 374.62 59.62 376.65 60.18C377.308 60.3379 377.956 60.5349 378.59 60.77C379.537 61.1089 380.36 61.7257 380.951 62.5397C381.543 63.3537 381.874 64.3272 381.904 65.3328C381.933 66.3384 381.658 67.3295 381.115 68.1764C380.572 69.0233 379.786 69.6868 378.86 70.08C377.449 70.7208 375.919 71.0598 374.37 71.0753C372.82 71.0908 371.284 70.7825 369.86 70.17C368.689 69.665 367.701 68.8135 367.029 67.7301C366.357 66.6466 366.033 65.3833 366.1 64.11H367.4C367.641 65.2703 368.16 66.3545 368.914 67.2686C369.668 68.1828 370.633 68.8994 371.727 69.3564C372.82 69.8135 374.008 69.9971 375.188 69.8914C376.369 69.7857 377.505 69.3939 378.5 68.75C379.106 68.4352 379.609 67.9532 379.949 67.3612C380.29 66.7692 380.453 66.092 380.42 65.41C380.45 64.7384 380.26 64.0753 379.88 63.5213C379.499 62.9673 378.948 62.5525 378.31 62.34C376.75 61.76 375.09 61.45 373.5 60.94C371.836 60.4761 370.209 59.8913 368.63 59.19C366.13 57.96 365.93 53.13 368.78 51.59C370.283 50.7169 371.987 50.2479 373.726 50.2287C375.464 50.2094 377.178 50.6405 378.7 51.48C379.571 51.9997 380.271 52.7613 380.717 53.6721C381.163 54.5829 381.334 55.6036 381.21 56.61ZM294.1 70.51C293.576 70.7083 292.998 70.7078 292.475 70.5088C291.952 70.3098 291.52 69.9261 291.26 69.43C289.63 66.99 287.83 64.66 286.1 62.28L285.35 61.28C283.29 64.04 281.23 66.69 279.35 69.44C279.105 69.9141 278.696 70.283 278.199 70.478C277.703 70.673 277.152 70.6808 276.65 70.5L284.38 60.13L277.19 50.76C277.708 50.5731 278.274 50.5706 278.793 50.7527C279.312 50.9349 279.753 51.2907 280.04 51.76C281.71 54.2 283.56 56.53 285.4 59C287.25 56.55 289.08 54.21 290.79 51.79C291.036 51.3236 291.445 50.964 291.94 50.7796C292.434 50.5953 292.978 50.5989 293.47 50.79L290.68 54.49C289.43 56.14 288.2 57.8 286.9 59.41C286.795 59.5038 286.711 59.6186 286.654 59.747C286.597 59.8754 286.567 60.0144 286.567 60.155C286.567 60.2956 286.597 60.4346 286.654 60.563C286.711 60.6914 286.795 60.8062 286.9 60.9C289.29 64.07 291.66 67.25 294.1 70.51ZM326.92 50.66V52.06C325.909 51.9937 324.895 52.1401 323.943 52.49C322.992 52.8398 322.125 53.3852 321.397 54.091C320.67 54.7968 320.098 55.6473 319.72 56.5876C319.341 57.5279 319.164 58.537 319.2 59.55V70.55H317.77V50.74H319.17V54.8C320.9 51.84 323.57 50.74 326.92 50.66ZM258.13 60C258.34 59 258.47 57.91 258.76 56.89C260.49 50.74 267.54 48.18 272.39 51.99C275.23 54.22 275.94 57.38 275.8 60.94H259.8C259.54 67.3 264.13 71.14 270 69.18C270.952 68.8394 271.805 68.267 272.48 67.5146C273.156 66.7621 273.634 65.8532 273.87 64.87C274.18 63.87 274.68 63.7 275.63 63.99C275.474 65.2074 275.043 66.3735 274.371 67.4006C273.699 68.4277 272.803 69.2891 271.75 69.92C270.01 70.8713 268.015 71.2481 266.048 70.9967C264.081 70.7452 262.244 69.8784 260.8 68.52C259.371 66.9134 258.507 64.8835 258.34 62.74C258.34 62.4 258.21 62.06 258.14 61.74C258.133 61.1467 258.13 60.5667 258.13 60ZM259.82 59.57H274.29C274.2 54.96 271.29 51.69 267.41 51.66C263.09 51.6 260 54.8 259.81 59.55L259.82 59.57Z" fill="black"/>
<path d="M64 56.7999C69.1363 56.7999 73.3 52.6362 73.3 47.5C73.3 42.3637 69.1363 38.2 64 38.2C58.8638 38.2 54.7 42.3637 54.7 47.5C54.7 52.6362 58.8638 56.7999 64 56.7999Z" fill="#61DAFB"/>
<path d="M64 81.7C71.3 88.8 78.5 93 84.3 93C86.2 93 88 92.6 89.5 91.7C94.7 88.7 96.6 81.2 94.8 70.5C94.5 68.6 94.1 66.7 93.6 64.7C95.6 64.1 97.4 63.5 99.2 62.9C109.3 59 114.9 53.6 114.9 47.7C114.9 41.7 109.3 36.3 99.2 32.5C97.4 31.8 95.6 31.2 93.6 30.7C94.1 28.7 94.5 26.8 94.8 24.9C96.5 14 94.6 6.39998 89.4 3.39998C87.9 2.49998 86.1 2.09998 84.2 2.09998C78.5 2.09998 71.2 6.29997 63.9 13.4C56.7 6.29997 49.5 2.09998 43.7 2.09998C41.8 2.09998 40 2.49998 38.5 3.39998C33.3 6.39998 31.4 13.9 33.2 24.6C33.5 26.5 33.9 28.4 34.4 30.4C32.4 31 30.6 31.6 28.8 32.2C18.7 36.1 13.1 41.5 13.1 47.4C13.1 53.4 18.7 58.8 28.8 62.6C30.6 63.3 32.4 63.9 34.4 64.4C33.9 66.4 33.5 68.3 33.2 70.2C31.5 80.9 33.4 88.5 38.5 91.4C40 92.3 41.8 92.7 43.7 92.7C49.5 92.9 56.7 88.7 64 81.7ZM58.4 68.2C60.2 68.3 62.1 68.3 64 68.3C65.9 68.3 67.8 68.3 69.6 68.2C67.8 70.6 65.9 72.8 64 74.9C62.1 72.8 60.2 70.6 58.4 68.2ZM46 57.9C47 59.6 47.9 61.2 49 62.8C45.9 62.4 43 61.9 40.2 61.3C41.1 58.6 42.1 55.8 43.3 53C44.1 54.6 45 56.3 46 57.9ZM40.2 33.8C43 33.2 45.9 32.7 49 32.3C48 33.9 47 35.5 46 37.2C45 38.9 44.1 40.5 43.3 42.2C42 39.3 41 36.5 40.2 33.8ZM45.7 47.5C47 44.8 48.4 42.1 50 39.4C51.5 36.8 53.2 34.2 54.9 31.6C57.9 31.4 60.9 31.3 64 31.3C67.2 31.3 70.2 31.4 73.1 31.6C74.9 34.2 76.5 36.8 78 39.4C79.6 42.1 81 44.8 82.3 47.5C81 50.2 79.6 52.9 78 55.6C76.5 58.2 74.8 60.8 73.1 63.4C70.1 63.6 67.1 63.7 64 63.7C60.8 63.7 57.8 63.6 54.9 63.4C53.1 60.8 51.5 58.2 50 55.6C48.4 52.9 47 50.2 45.7 47.5ZM84.8 42.1L82.1 37.1C81.1 35.4 80.2 33.8 79.1 32.2C82.2 32.6 85.1 33.1 87.9 33.7C87 36.5 86 39.3 84.8 42.1ZM84.8 52.9C86 55.7 87 58.5 87.9 61.2C85.1 61.8 82.2 62.3 79.1 62.7C80.1 61.1 81.1 59.5 82.1 57.8C83 56.3 83.9 54.6 84.8 52.9ZM87.1 87.6C86.3 88.1 85.3 88.3 84.2 88.3C79.3 88.3 73.2 84.3 67.2 78.3C70.1 75.2 72.9 71.7 75.7 67.8C80.4 67.4 84.9 66.7 89.1 65.7C89.6 67.5 89.9 69.3 90.2 71.1C91.6 79.6 90.5 85.7 87.1 87.6ZM92.3 34.9C103.5 38.1 110.2 43 110.2 47.5C110.2 51.4 105.6 55.3 97.5 58.4C95.9 59 94.1 59.6 92.3 60.1C91 56 89.4 51.8 87.4 47.5C89.4 43.2 91.1 39 92.3 34.9ZM84.3 6.69998C85.4 6.69998 86.3 6.89998 87.2 7.39998C90.5 9.29998 91.7 15.3 90.3 23.9C90 25.6 89.6 27.4 89.2 29.3C85 28.4 80.5 27.7 75.8 27.2C73.1 23.3 70.2 19.8 67.3 16.7C73.3 10.8 79.4 6.69998 84.3 6.69998ZM69.6 26.8C67.8 26.7 65.9 26.7 64 26.7C62.1 26.7 60.2 26.7 58.4 26.8C60.2 24.4 62.1 22.2 64 20.1C65.9 22.2 67.8 24.5 69.6 26.8ZM40.9 7.39998C41.7 6.89998 42.7 6.69998 43.8 6.69998C48.7 6.69998 54.8 10.7 60.8 16.7C57.9 19.8 55.1 23.3 52.3 27.2C47.6 27.6 43.1 28.3 38.9 29.3C38.4 27.5 38.1 25.7 37.8 23.9C36.4 15.4 37.5 9.39998 40.9 7.39998ZM35.7 60.1C24.5 56.9 17.8 52 17.8 47.5C17.8 43.6 22.4 39.7 30.5 36.6C32.1 36 33.9 35.4 35.7 34.9C37 39 38.6 43.2 40.6 47.5C38.6 51.8 36.9 56.1 35.7 60.1ZM37.8 71.1C38.1 69.4 38.5 67.6 38.9 65.7C43.1 66.6 47.6 67.3 52.3 67.8C55 71.7 57.9 75.2 60.8 78.3C54.8 84.2 48.7 88.3 43.8 88.3C42.7 88.3 41.8 88.1 40.9 87.6C37.5 85.7 36.4 79.6 37.8 71.1ZM33.6 112.3C35.8 109.6 35.9 106.6 34.7 103.6C33.5 100.6 31 99.2 27.9 99.1C24.2 99 20.4 99.1 16.7 99.1H16V125H19V115.2H23.7C24.3 115.2 24.8 115.4 25.1 115.9L31.1 125.2C31.2 125.4 31.5 125.7 31.7 125.7H35.6C33.2 122 30.9 118.5 28.5 114.9C30.6 114.6 32.4 113.9 33.6 112.3ZM19 112.1V102.2H20.1C22.4 102.2 24.8 102.1 27.1 102.3C29.8 102.4 31.7 104.5 31.7 107.2C31.7 109.9 29.5 112 26.8 112.1C24.4 112.2 22 112.1 19 112.1ZM57.7 113.4C56.1 106.4 49.7 104.6 44.8 106.8C41 108.5 39.3 111.8 39.2 115.9C39.1 119 40 121.8 42.4 123.9C45.1 126.3 48.4 126.6 51.8 126C53.7 125.6 55.4 124.7 56.7 123.3C56.2 122.6 55.7 121.9 55.2 121.3C52.4 123.7 49.3 124.5 45.9 122.9C43.7 121.8 42.6 119.1 42.4 117.1H57.9V115.8C58 114.9 57.9 114.1 57.7 113.4ZM42.6 115C42.3 112 45.3 108.8 48.6 108.8C52.4 108.7 54.8 111 54.9 115H42.6ZM73.3 106.3C71.8 106 70.2 105.9 68.7 106C66.3 106.2 64.2 107.3 62.5 109.1C63 109.8 63.4 110.5 64 111.3C64.2 111.1 64.4 110.9 64.6 110.8C66.2 109.3 68.1 108.5 70.4 108.7C72.2 108.8 73.9 109.4 74.4 111.2C74.8 112.6 74.7 114.1 74.8 115.6C74.5 115.6 74.4 115.5 74.3 115.4C71.9 113.4 69.2 113 66.3 113.7C63.6 114.4 61.9 116.5 61.7 119.2C61.5 122.3 62.9 124.6 65.6 125.7C67.3 126.4 69.2 126.4 71 126C72.4 125.7 73 124.9 75 123.8V125.1H77.8C77.8 121.1 77.9 116.2 77.8 111.6C77.8 108.7 76.1 106.9 73.3 106.3ZM74.7 118.9C74.6 119.2 74.7 119.5 74.7 119.8C74.7 121.9 74.2 122.6 72.2 123.4C70.8 123.9 69.3 124.1 67.8 123.6C66.1 123.1 64.9 121.6 64.9 119.9C64.8 118.2 65.9 116.5 67.6 116C69.9 115.2 72 115.7 73.9 117.1C74.5 117.6 74.9 118.1 74.7 118.9ZM90.3 109C92.9 108.2 95.3 108.7 97.1 110.9L97.4 111.1C98.1 110.5 98.7 109.9 99.5 109.2C99.2 108.9 99.1 108.7 98.9 108.4C96 105.3 90.3 104.9 86.8 107.4C81.9 111 82 118 84.4 121.7C86.7 125.2 90 126.4 93.9 125.9C96.2 125.6 98.1 124.5 99.6 122.6C98.9 122 98.2 121.4 97.5 120.7C97.3 120.9 97.2 121 97.1 121.2C94.4 124.2 89.9 123.9 87.5 120.7C86.1 118.8 85.8 116.6 86.2 114.4C86.4 111.9 87.7 109.9 90.3 109ZM111.1 122.6C110.9 122.7 110.8 122.8 110.8 122.8C110 123.4 109.2 123.5 108.3 123.2C107.4 122.8 107.3 122 107.2 121.2V109.8C107.2 109.6 107.2 110 107.3 109H111.1V106H107.1V101H104.1V106.4H101.5C101.3 106.4 101 106.6 101 106.8C100.9 107.5 101 108 101 109H104.2V121.8C104.2 123.4 104.6 124.8 106 125.6C107.5 126.5 110.4 126.3 111.7 125.2C111.9 125.1 112 124.7 112 124.6C111.7 124 111.4 123.3 111.1 122.6Z" fill="#61DAFB"/>
<g clip-path="url(#clip0)">
<path d="M576.004 25.602C558.937 25.602 548.274 34.132 544.004 51.199C550.402 42.668 557.871 39.469 566.402 41.602C571.273 42.816 574.754 46.348 578.609 50.262C584.883 56.629 592.145 64 608.004 64C625.07 64 635.734 55.469 640.004 38.398C633.605 46.934 626.137 50.133 617.605 48C612.735 46.785 609.258 43.254 605.398 39.34C599.128 32.973 591.868 25.602 576.004 25.602ZM544.004 64C526.938 64 516.274 72.531 512.004 89.602C518.402 81.066 525.87 77.867 534.402 80C539.273 81.215 542.754 84.746 546.609 88.66C552.883 95.027 560.145 102.398 576.004 102.398C593.07 102.398 603.734 93.868 608.004 76.801C601.605 85.332 594.137 88.531 585.605 86.398C580.735 85.184 577.258 81.652 573.398 77.738C567.128 71.371 559.868 64 544.004 64Z" fill="#38B2AC"/>
</g>
<path d="M882.325 80.749C882.035 80.749 881.747 80.673 881.493 80.525L878.843 78.957C878.447 78.736 878.64 78.657 878.771 78.612C879.299 78.428 879.406 78.385 879.969 78.067C880.028 78.034 880.105 78.046 880.166 78.082L882.201 79.291C882.239 79.3112 882.281 79.3218 882.324 79.3218C882.367 79.3218 882.409 79.3112 882.447 79.291L890.384 74.71C890.421 74.688 890.452 74.6565 890.474 74.6188C890.495 74.5811 890.506 74.5384 890.506 74.495V65.335C890.506 65.291 890.495 65.2478 890.473 65.2094C890.452 65.171 890.421 65.1389 890.383 65.116L882.449 60.539C882.411 60.5184 882.369 60.5075 882.327 60.5075C882.284 60.5075 882.242 60.5184 882.204 60.539L874.271 65.117C874.233 65.1398 874.202 65.1717 874.18 65.2099C874.158 65.248 874.147 65.2911 874.146 65.335V74.495C874.146 74.583 874.195 74.666 874.271 74.707L876.445 75.964C877.625 76.553 878.348 75.859 878.348 75.161V66.116C878.348 65.989 878.451 65.888 878.578 65.888H879.585C879.71 65.888 879.814 65.989 879.814 66.116V75.161C879.814 76.735 878.957 77.638 877.464 77.638C877.005 77.638 876.644 77.638 875.636 77.142L873.555 75.944C873.302 75.7965 873.092 75.5851 872.946 75.331C872.8 75.077 872.723 74.7891 872.723 74.496V65.336C872.723 64.741 873.04 64.186 873.555 63.89L881.492 59.303C881.748 59.1638 882.034 59.0908 882.326 59.0908C882.617 59.0908 882.903 59.1638 883.159 59.303L891.096 63.89C891.61 64.187 891.929 64.742 891.929 65.336V74.496C891.929 74.7891 891.851 75.0769 891.705 75.3309C891.559 75.5849 891.349 75.7963 891.096 75.944L883.159 80.526C882.906 80.673 882.618 80.75 882.325 80.749ZM884.778 74.438C881.303 74.438 880.576 72.843 880.576 71.506C880.576 71.4452 880.601 71.387 880.644 71.344C880.687 71.3011 880.745 71.277 880.806 71.277H881.832C881.887 71.2768 881.94 71.2963 881.982 71.3319C882.024 71.3674 882.051 71.4168 882.06 71.471C882.214 72.516 882.677 73.043 884.778 73.043C886.449 73.043 887.161 72.665 887.161 71.777C887.161 71.265 886.959 70.886 884.361 70.631C882.189 70.416 880.846 69.937 880.846 68.198C880.846 66.597 882.196 65.641 884.458 65.641C887.001 65.641 888.259 66.524 888.418 68.418C888.421 68.4499 888.416 68.4819 888.406 68.5122C888.396 68.5425 888.379 68.5703 888.358 68.594C888.336 68.6168 888.31 68.635 888.281 68.6475C888.253 68.66 888.221 68.6667 888.19 68.667H887.159C887.107 68.6671 887.057 68.6494 887.016 68.6168C886.975 68.5843 886.947 68.5388 886.936 68.488C886.688 67.388 886.088 67.037 884.457 67.037C882.632 67.037 882.42 67.674 882.42 68.149C882.42 68.726 882.67 68.894 885.135 69.22C887.574 69.543 888.733 69.999 888.733 71.714C888.734 73.447 887.292 74.438 884.778 74.438Z" fill="#83CD29"/>
<path d="M865.982 68.43C866.295 68.247 866.488 67.913 866.488 67.55V65.196C866.488 64.834 866.296 64.5 865.982 64.317L857.618 59.461C857.463 59.3711 857.288 59.3235 857.109 59.3232C856.93 59.3228 856.754 59.3697 856.599 59.459L848.183 64.318C848.029 64.4074 847.9 64.5357 847.811 64.6901C847.722 64.8445 847.675 65.0197 847.675 65.198V74.914C847.675 75.279 847.871 75.617 848.189 75.798L856.552 80.563C856.86 80.74 857.238 80.741 857.549 80.569L862.607 77.757C862.686 77.7133 862.751 77.6495 862.797 77.572C862.843 77.4946 862.868 77.4063 862.868 77.3163C862.869 77.2262 862.846 77.1376 862.801 77.0596C862.756 76.9815 862.691 76.9168 862.613 76.872L854.145 72.012C854.067 71.9678 854.003 71.9037 853.958 71.8265C853.913 71.7492 853.889 71.6614 853.889 71.572V68.526C853.889 68.344 853.986 68.177 854.143 68.087L856.78 66.567C856.857 66.5223 856.944 66.4988 857.033 66.4988C857.123 66.4988 857.21 66.5223 857.287 66.567L859.924 68.087C860.001 68.1313 860.066 68.1952 860.11 68.2723C860.155 68.3494 860.179 68.4369 860.179 68.526V70.922C860.178 71.0116 860.202 71.0997 860.246 71.1774C860.291 71.2551 860.355 71.3196 860.433 71.3643C860.511 71.409 860.599 71.4324 860.688 71.432C860.778 71.4316 860.866 71.4074 860.943 71.362L865.982 68.43Z" fill="#404137"/>
<path d="M856.984 67.974C857.014 67.9573 857.047 67.9486 857.081 67.9486C857.116 67.9486 857.149 67.9573 857.179 67.974L858.794 68.907C858.854 68.942 858.891 69.007 858.891 69.076V70.941C858.891 71.011 858.854 71.075 858.794 71.11L857.179 72.042C857.149 72.0592 857.116 72.0683 857.081 72.0683C857.047 72.0683 857.014 72.0592 856.984 72.042L855.37 71.11C855.34 71.093 855.315 71.0684 855.298 71.0387C855.281 71.009 855.272 70.9753 855.272 70.941V69.076C855.272 69.007 855.309 68.942 855.37 68.907L856.984 67.974Z" fill="#83CD29"/>
<path d="M835.083 71.854C835.083 71.944 835.035 72.028 834.956 72.074L832.066 73.74C832.028 73.7626 831.984 73.7745 831.939 73.7745C831.894 73.7745 831.851 73.7626 831.812 73.74L828.922 72.074C828.883 72.0516 828.851 72.0196 828.829 71.981C828.807 71.9424 828.795 71.8986 828.795 71.854V68.516C828.795 68.426 828.844 68.341 828.922 68.295L831.812 66.627C831.851 66.6039 831.895 66.5917 831.94 66.5917C831.984 66.5917 832.029 66.6039 832.067 66.627L834.958 68.295C834.996 68.3178 835.028 68.3502 835.05 68.3889C835.072 68.4276 835.084 68.4714 835.084 68.516V71.854H835.083ZM835.864 47.138C835.787 47.0957 835.699 47.0741 835.611 47.0755C835.523 47.0769 835.436 47.1011 835.36 47.1458C835.284 47.1905 835.221 47.2542 835.177 47.3307C835.132 47.4071 835.109 47.4937 835.108 47.582V60.497C835.108 60.5593 835.091 60.6204 835.06 60.6744C835.029 60.7284 834.985 60.7734 834.931 60.805C834.877 60.836 834.815 60.8522 834.753 60.8522C834.691 60.8522 834.629 60.836 834.575 60.805L832.467 59.59C832.313 59.5011 832.138 59.4543 831.96 59.4543C831.781 59.4543 831.606 59.5011 831.452 59.59L823.034 64.448C822.879 64.5373 822.751 64.6657 822.662 64.8204C822.572 64.975 822.525 65.1504 822.525 65.329V75.048C822.525 75.411 822.719 75.746 823.033 75.929L831.451 80.79C831.765 80.972 832.153 80.972 832.468 80.79L840.888 75.929C841.042 75.8394 841.171 75.7109 841.26 75.5563C841.349 75.4017 841.396 75.2265 841.396 75.048V50.821C841.396 50.453 841.196 50.113 840.875 49.933L835.864 47.138Z" fill="#404137"/>
<path d="M806.238 59.407C806.392 59.3176 806.568 59.2706 806.746 59.2706C806.924 59.2706 807.1 59.3176 807.254 59.407L815.672 64.264C815.986 64.446 816.18 64.782 816.18 65.145V74.867C816.18 75.23 815.986 75.566 815.672 75.748L807.255 80.609C807.1 80.698 806.925 80.7448 806.747 80.7448C806.568 80.7448 806.393 80.698 806.238 80.609L797.823 75.748C797.669 75.6584 797.541 75.5299 797.451 75.3753C797.362 75.2207 797.315 75.0454 797.315 74.867V65.144C797.315 64.782 797.509 64.446 797.823 64.264L806.238 59.407Z" fill="#83CD29"/>
<path d="M790.93 65.064C790.93 64.698 790.738 64.362 790.422 64.181L782.007 59.338C781.866 59.2561 781.706 59.2104 781.543 59.205H781.456C781.293 59.2105 781.133 59.2562 780.992 59.338L772.576 64.181C772.421 64.2706 772.293 64.3994 772.203 64.5544C772.114 64.7094 772.067 64.8851 772.067 65.064L772.085 78.104C772.085 78.286 772.18 78.455 772.339 78.543C772.415 78.5892 772.502 78.6136 772.592 78.6136C772.681 78.6136 772.768 78.5892 772.844 78.543L777.844 75.679C778.16 75.491 778.353 75.16 778.353 74.797V68.705C778.353 68.341 778.545 68.006 778.86 67.824L780.99 66.598C781.144 66.5075 781.319 66.4602 781.498 66.461C781.672 66.461 781.85 66.505 782.005 66.598L784.133 67.824C784.448 68.006 784.642 68.341 784.642 68.705V74.797C784.642 75.16 784.837 75.493 785.151 75.679L790.151 78.543C790.228 78.5871 790.315 78.6101 790.404 78.6099C790.493 78.6097 790.58 78.5862 790.657 78.5418C790.734 78.4974 790.798 78.4336 790.842 78.3568C790.887 78.28 790.911 78.1928 790.911 78.104L790.93 65.064Z" fill="#404137"/>
<defs>
<clipPath id="clip0">
<rect width="128" height="128" fill="white" transform="translate(512)"/>
</clipPath>
</defs>
</svg>
